<?xml version="1.0" encoding="UTF-8" standalone="no"?>
<svg
   xmlns:dc="http://purl.org/dc/elements/1.1/"
   xmlns:cc="http://creativecommons.org/ns#"
   xmlns:rdf="http://www.w3.org/1999/02/22-rdf-syntax-ns#"
   xmlns:svg="http://www.w3.org/2000/svg"
   xmlns="http://www.w3.org/2000/svg"
   xmlns:sodipodi="http://sodipodi.sourceforge.net/DTD/sodipodi-0.dtd"
   xmlns:inkscape="http://www.inkscape.org/namespaces/inkscape"
   viewBox="0 0 12.000053 6.0007639"
   version="1.1"
   id="svg7"
   sodipodi:docname="Input_Field.svg"
   inkscape:version="0.92.3 (2405546, 2018-03-11)"
   width="12.000053"
   height="6.0007639">
  <metadata
     id="metadata13">
    <rdf:RDF>
      <cc:Work
         rdf:about="">
        <dc:format>image/svg+xml</dc:format>
        <dc:type
           rdf:resource="http://purl.org/dc/dcmitype/StillImage" />
        <dc:title>SessionTreeList_Collapse</dc:title>
      </cc:Work>
    </rdf:RDF>
  </metadata>
  <defs
     id="defs11" />
  <sodipodi:namedview
     pagecolor="#ffffff"
     bordercolor="#666666"
     borderopacity="1"
     objecttolerance="10"
     gridtolerance="10"
     guidetolerance="10"
     inkscape:pageopacity="0"
     inkscape:pageshadow="2"
     inkscape:window-width="3840"
     inkscape:window-height="1490"
     id="namedview9"
     showgrid="false"
     inkscape:zoom="19.666667"
     inkscape:cx="-10.747205"
     inkscape:cy="9.3320512"
     inkscape:window-x="-12"
     inkscape:window-y="-12"
     inkscape:window-maximized="1"
     inkscape:current-layer="svg7"
     fit-margin-top="0"
     fit-margin-left="0"
     fit-margin-right="0"
     fit-margin-bottom="0" />
  <title
     id="title2">SessionTreeList_Collapse</title>
  <g
     id="Calque_2"
     data-name="Calque 2"
     transform="rotate(90,6.0000065,6.0000201)"
     style="fill:#ffffff;fill-opacity:1">
    <g
       id="IHM_NEXTFLOW"
       data-name="IHM NEXTFLOW"
       style="fill:#ffffff;fill-opacity:1">
      <path
         id="TreeList_Collapse"
         d="M 0.2,0.22 A 0.6,0.6 0 0 1 0.67,0 0.62,0.62 0 0 1 1.14,0.22 L 5.8,5.47 a 0.8,0.8 0 0 1 0,1.06 L 1.14,11.78 A 0.62,0.62 0 0 1 0.67,12 0.6,0.6 0 0 1 0.2,11.78 0.79,0.79 0 0 1 0,11.25 V 0.75 A 0.79,0.79 0 0 1 0.2,0.22 Z"
         inkscape:connector-curvature="0"
         style="fill:#ffffff;fill-opacity:1" />
    </g>
  </g>
  <path
     style="fill:#ffffff;fill-opacity:1;stroke-width:0.05084746"
     d="M 5.760675,5.9354997 C 5.5919881,5.8851389 0.34345581,1.2641246 0.15474281,0.99981645 c -0.1468863,-0.2057263 -0.1503888,-0.4925186 -0.008222,-0.6732541 0.2372897,-0.3016649 -0.094109,-0.2855023 5.85394799,-0.2855023 5.2031824,0 5.4648214,0.00435 5.6313134,0.093642 0.09603,0.051503 0.218921,0.1790348 0.273084,0.2834036 0.08563,0.1650144 0.09057,0.2161476 0.03786,0.392089 C 11.889425,0.98809035 11.559764,1.299243 9.212682,3.3869605 7.7444993,4.6929017 6.449384,5.8128821 6.3346473,5.8758058 6.1130052,5.9973587 6.0053708,6.0085528 5.760675,5.9354997 Z"
     id="path3718"
     inkscape:connector-curvature="0" />
</svg>
